{
	"asset":{
		"generator":"Khronos glTF Blender I/O v5.0.21",
		"version":"2.0"
	},
	"scene":0,
	"scenes":[
		{
			"name":"Scene",
			"nodes":[
				0
			]
		}
	],
	"nodes":[
		{
			"mesh":0,
			"name":"\u878d\u7403.042",
			"scale":[
				0.07661215960979462,
				0.16773054003715515,
				0.1830916702747345
			],
			"translation":[
				0.6791539788246155,
				3.4121201038360596,
				0.3115471601486206
			]
		}
	],
	"materials":[
		{
			"doubleSided":true,
			"name":"\u6750\u8d28",
			"pbrMetallicRoughness":{
				"baseColorFactor":[
					0.800000011920929,
					0.800000011920929,
					0.800000011920929,
					1
				],
				"metallicFactor":0,
				"roughnessFactor":0.5
			}
		}
	],
	"meshes":[
		{
			"name":"Mesh",
			"primitives":[
				{
					"attributes":{
						"POSITION":0,
						"NORMAL":1,
						"TEXCOORD_0":2,
						"TANGENT":3
					},
					"indices":4,
					"material":0
				}
			]
		}
	],
	"accessors":[
		{
			"bufferView":0,
			"componentType":5126,
			"count":32499,
			"max":[
				2.150965690612793,
				2.1509599685668945,
				12.139741897583008
			],
			"min":[
				-2.5425338745117188,
				-34.37860870361328,
				-16.76852798461914
			],
			"type":"VEC3"
		},
		{
			"bufferView":1,
			"componentType":5126,
			"count":32499,
			"type":"VEC3"
		},
		{
			"bufferView":2,
			"componentType":5126,
			"count":32499,
			"type":"VEC2"
		},
		{
			"bufferView":3,
			"componentType":5126,
			"count":32499,
			"type":"VEC4"
		},
		{
			"bufferView":4,
			"componentType":5123,
			"count":158352,
			"type":"SCALAR"
		}
	],
	"bufferViews":[
		{
			"buffer":0,
			"byteLength":389988,
			"byteOffset":0,
			"target":34962
		},
		{
			"buffer":0,
			"byteLength":389988,
			"byteOffset":389988,
			"target":34962
		},
		{
			"buffer":0,
			"byteLength":259992,
			"byteOffset":779976,
			"target":34962
		},
		{
			"buffer":0,
			"byteLength":519984,
			"byteOffset":1039968,
			"target":34962
		},
		{
			"buffer":0,
			"byteLength":316704,
			"byteOffset":1559952,
			"target":34963
		}
	],
	"buffers":[
		{
			"byteLength":1876656,
			"uri":"Buttons.bin"
		}
	]
}
